<?xml version="1.0" encoding="UTF-8" standalone="no"?>
<!-- Created with Inkscape (http://www.inkscape.org/) -->

<svg
   xmlns:dc="http://purl.org/dc/elements/1.1/"
   xmlns:cc="http://creativecommons.org/ns#"
   xmlns:rdf="http://www.w3.org/1999/02/22-rdf-syntax-ns#"
   xmlns:svg="http://www.w3.org/2000/svg"
   xmlns="http://www.w3.org/2000/svg"
   xmlns:xlink="http://www.w3.org/1999/xlink"
   xmlns:sodipodi="http://sodipodi.sourceforge.net/DTD/sodipodi-0.dtd"
   xmlns:inkscape="http://www.inkscape.org/namespaces/inkscape"
   width="371"
   height="297"
   id="svg2"
   sodipodi:version="0.32"
   inkscape:version="0.48.0 r9654"
   version="1.0"
   inkscape:output_extension="org.inkscape.output.svg.inkscape"
   sodipodi:docname="Paramount_logo.svg">
  <metadata
     id="metadata3131">
    <rdf:RDF>
      <cc:Work
         rdf:about="">
        <dc:format>image/svg+xml</dc:format>
        <dc:type
           rdf:resource="http://purl.org/dc/dcmitype/StillImage" />
      </cc:Work>
    </rdf:RDF>
  </metadata>
  <defs
     id="defs3129" />
  <sodipodi:namedview
     pagecolor="#ffffff"
     bordercolor="#666666"
     borderopacity="1"
     objecttolerance="10"
     gridtolerance="10"
     guidetolerance="10"
     inkscape:pageopacity="0"
     inkscape:pageshadow="2"
     inkscape:window-width="1366"
     inkscape:window-height="691"
     id="namedview3127"
     showgrid="false"
     showguides="true"
     inkscape:guide-bbox="true"
     inkscape:zoom="1.295172"
     inkscape:cx="185.5"
     inkscape:cy="136.98738"
     inkscape:window-x="-9"
     inkscape:window-y="-9"
     inkscape:window-maximized="1"
     inkscape:current-layer="layer1">
    <sodipodi:guide
       orientation="1,0"
       position="39.308824,168.15441"
       id="guide3450" />
    <sodipodi:guide
       orientation="1,0"
       position="331.94118,167.60846"
       id="guide3452" />
  </sodipodi:namedview>
  <g
     inkscape:label="Layer 1"
     inkscape:groupmode="layer"
     id="layer1"
     transform="translate(2.67819, -73.9044)">
    <path
       id="path2609"
       d="M 57.827,131.32246 L 57.827,131.32246"
       style="fill: rgb(255, 255, 255); fill-rule: nonzero; stroke: none;" />
    <path
       inkscape:connector-curvature="0"
       style="fill:#000000;fill-rule:nonzero;stroke:none"
       d="m 291.42137,279.46135 c 9.02804,-17.11867 14.13909,-36.61432 14.13909,-57.31519 0,-67.93904 -55.07213,-123.011169 -123.01117,-123.011169 -67.92787,0 -123.000007,55.072129 -123.000007,123.011169 0,21.22537 5.378879,41.20087 14.842135,58.63201 0,0 6.997007,-9.90963 8.760208,-11.47196 2.153783,-2.74524 10.233261,-12.23082 11.639358,-13.33561 1.885956,-1.56233 4.385684,-4.66467 4.820904,-5.7583 3.135822,-2.85683 11.371532,-13.63691 14.663582,-16.06968 1.32798,-0.4687 4.54192,-6.19352 7.64426,-8.58165 1.4061,-3.88351 6.85193,-7.48803 7.5215,-8.6263 2.12031,-1.91943 6.81846,-7.80049 9.56369,-9.87615 0.82581,0 1.41726,-0.71421 1.99755,-1.13827 1.33914,-0.70305 6.81846,-1.29451 9.13963,-2.82336 0.15624,-1.32798 3.29206,-3.57104 4.02858,-4.22945 1.88596,-1.88595 6.78498,-6.19352 10.07703,-9.21774 0.74769,-1.32799 5.72483,-4.22946 7.87861,-6.03729 2.94611,-2.31002 7.84513,-6.22701 9.68644,-6.85194 1.68509,-0.55797 3.09119,-0.79232 4.62004,0.0781 3.4148,0.65841 5.92569,3.5264 8.73789,5.55743 1.10479,1.68508 3.10234,1.91943 4.03974,3.77191 2.1203,1.84132 4.50843,3.37017 7.17555,4.02858 2.77872,0.31247 5.72483,3.85003 6.66223,5.09989 2.74523,2.46625 5.49047,5.13337 7.92324,8.00136 1.52885,0.70305 2.26538,2.3435 3.638,3.29206 2.1203,2.77871 5.13337,4.58655 8.19107,5.63554 2.19842,1.68509 4.75395,2.51089 7.25368,3.45945 0.54681,0.11159 5.6467,4.10669 6.98584,6.42787 1.64045,1.64045 8.81601,11.5166 10.6908,14.57431 0.74769,1.33914 5.64671,7.53266 7.06397,9.48557 0.65841,0.98204 9.01687,11.44965 9.79804,12.77763 1.99755,2.31002 7.28715,9.32934 7.72237,10.7466 3.09118,2.34349 4.48612,6.05961 5.68019,7.40991 l 3.42596,2.35465"
       id="path14684" />
    <path
       inkscape:connector-curvature="0"
       style="fill:#ffffff;fill-rule:nonzero;stroke:none"
       d="m 140.08739,141.12819 c 1.48422,1.91943 3.1135,5.21149 2.99075,7.67774 -0.44638,5.93685 -5.47931,9.10615 -9.71992,10.43413 -2.48857,0.79232 -6.8631,1.09363 -7.91209,0.99319 -1.62929,5.68019 -5.54627,13.13474 -11.63936,17.65433 -1.97523,1.51769 -4.58655,3.87235 -12.17501,3.73844 -4.74279,-0.31247 -9.820363,-2.05335 -11.22646,-4.59772 -0.948557,-0.78116 -0.903919,-2.15378 -1.138269,-3.29205 0.312466,-1.56233 -0.07812,-3.72727 1.763201,-4.30757 0.502178,-0.79232 2.90147,-0.87044 3.682635,0.62493 0.859282,2.7006 -2.934948,5.05526 -0.390582,7.64426 1.763201,1.45074 6.271635,3.60452 12.152695,1.13827 2.74524,-1.26102 7.95672,-6.47251 9.79804,-10.07703 1.7632,-2.54436 3.91699,-8.42542 5.08873,-12.15269 0.79233,-2.35466 2.78988,-6.4502 3.53756,-7.54383 1.66277,-2.25422 4.1067,-4.99945 5.94802,-3.9393 -1.64045,1.2945 -3.04655,2.3435 -4.18481,6.97469 -0.49102,2.35465 -0.75885,4.99945 -0.98204,6.66222 0,0 4.60887,0.30131 7.9344,-1.66277 1.9306,-1.17174 6.98585,-8.91644 2.35466,-15.47822 -1.31682,-1.45074 -2.29886,-2.45509 -3.82771,-3.04655 -6.79614,-2.49972 -12.34241,-1.7632 -15.99156,-0.85928 -6.53947,1.84132 -11.43849,5.23381 -13.20169,6.84078 -5.39004,4.37452 -5.869899,11.22645 -4.608875,13.81546 1.55117,2.61132 4.017415,5.20032 8.793685,4.63119 1.39494,-0.31247 2.82335,-0.80348 3.0577,-2.37697 0.40175,-1.56233 -0.18971,-2.52205 0.59146,-3.54872 2.54436,-2.82336 4.408,0.31246 3.96162,2.27653 -0.3571,1.57349 -1.11595,2.35466 -2.71176,3.57104 -1.24986,0.78117 -4.38568,1.819 -6.6957,1.60697 -5.04409,-0.27899 -7.432226,-2.39929 -9.061513,-4.88786 -3.660316,-8.58166 2.655961,-16.32635 10.489933,-20.47768 10.08819,-4.60888 18.81491,-4.30757 22.83233,-3.44829 3.33669,0.80349 7.30948,2.13147 10.48993,5.41236"
       id="path14686" />
    <path
       inkscape:connector-curvature="0"
       style="fill:#000000;fill-rule:nonzero;stroke:none"
       d="m 187.77194,195.37452 c 1.56233,1.2945 1.60697,3.21394 3.1693,4.50844 0.74768,1.68508 1.91943,3.16929 2.9461,4.69815 0.39059,1.93059 2.07567,3.33669 2.49973,5.30076 1.88596,2.93495 3.49293,5.91453 5.17801,8.9276 0.74769,0.55797 1.09363,1.2945 1.32798,2.04219 0.98204,1.49537 2.78988,2.78987 3.10234,4.63119 0.54682,1.17175 1.56233,2.15378 1.68509,3.48176 1.17174,2.07567 1.96407,4.27409 3.21393,6.31628 0.20087,1.68509 1.80784,2.82335 1.88596,4.58656 1.87479,2.31001 -1.60697,4.02857 -0.27899,6.5841 1.09363,2.74524 1.48421,5.80294 3.01307,8.38078 0.74768,2.97959 1.57348,6.00382 4.03973,8.28035 1.49538,1.56233 1.72973,3.68264 2.43277,5.55743 0.74769,1.68509 -0.98203,2.74524 -0.54681,4.31873 -0.66957,1.71856 0.70305,3.13582 0.66957,4.89902 0.42406,1.21639 0.62493,2.54437 1.4061,3.64916 0.20087,1.51769 1.01551,2.77871 1.09363,4.34104 0.20087,0.20087 0.59145,0.47986 0.31246,0.74769 -0.50217,0.90392 -1.60696,0.66957 -2.34349,0.54682 -2.04219,-0.42407 -1.84132,-2.62249 -3.02423,-3.83887 -0.70304,-1.24987 -0.54681,-2.85683 -1.52885,-3.96162 -0.23435,-1.37262 -0.9374,-2.58901 -1.21638,-3.95047 -0.89276,-1.02667 -0.89276,-2.39929 -1.48422,-3.57104 -0.54681,-1.24986 -0.43522,-2.82335 -1.60696,-3.76075 -1.33914,-1.52885 -0.9374,-3.85003 -2.35466,-5.37888 -0.54681,-2.46625 -1.68508,-4.65351 -3.37017,-6.66222 -0.62493,-2.15378 -1.84132,-4.07322 -2.74524,-6.11541 -1.09363,-1.52885 -1.06015,-3.5264 -2.35465,-4.97713 -0.58029,-3.44829 -4.62003,-2.85683 -6.30512,-5.28961 -0.4687,-2.74523 -3.5264,-4.15133 -3.49292,-7.13092 -0.15623,-2.2319 -0.97088,-4.19597 -1.48421,-6.31627 -0.78117,-4.77627 -4.07322,-10.18863 -0.9374,-14.93141 -0.66957,-2.74524 -0.82581,-5.72483 -2.08683,-8.19108 -0.42406,-2.589 -1.64045,-4.8209 -1.60697,-7.64425 0.15624,-0.27899 0.59146,-0.20088 0.79233,-0.0781"
       id="path14688" />
    <path
       inkscape:connector-curvature="0"
       style="fill:#000000;fill-rule:nonzero;stroke:none"
       d="m 213.79589,213.17392 c 1.91944,2.3435 4.03974,5.01062 6.42787,6.74034 0.4687,1.24986 1.91944,1.32798 2.43277,2.54437 1.21639,1.21638 2.51089,2.51088 3.55989,3.96162 2.35465,2.62248 5.02177,4.8209 5.09989,8.39194 0.0781,1.37262 0.74768,2.77872 1.96407,3.44829 1.01551,1.52885 2.65596,2.49973 3.76075,3.95046 2.38813,1.93059 4.30757,3.80539 6.77382,5.56859 1.2945,1.52885 3.25857,2.86799 3.69379,4.89902 0.81464,0.74769 0.97088,1.91944 1.68509,2.82336 0.89276,1.37261 2.38813,2.51088 2.70059,4.11785 1.76321,2.589 2.94611,5.41236 4.82091,7.91209 1.33914,2.55552 2.86799,4.98829 4.03974,7.61078 1.13827,1.17174 1.13827,2.82335 2.35465,3.96162 0,0.39058 0.42406,0.85928 0,1.21638 -1.21638,0.34595 -1.06015,-1.26102 -1.96407,-1.60696 -0.78116,-0.74769 -1.13827,-1.88596 -2.07567,-2.51089 -0.27898,-1.37262 -1.72972,-2.2319 -1.99755,-3.60452 -1.49537,-1.65161 -2.97958,-3.0577 -4.70931,-4.39684 -1.2945,-1.60697 -2.77871,-3.29206 -4.03974,-5.01062 -1.17174,-0.15623 -1.32798,-1.68508 -2.42161,-1.96407 -1.60696,-2.62248 -4.3522,-4.78743 -7.33179,-5.25613 -1.91943,-0.73652 -1.45073,-2.77871 -3.02422,-3.76075 -0.39059,-1.13827 -1.71857,-1.37262 -1.99755,-2.54436 -1.64045,-1.33914 -3.24742,-3.05771 -4.69815,-4.6312 -1.13827,-2.26537 -2.66712,-4.38568 -3.37017,-6.85193 -1.57349,-1.13827 -0.98204,-3.18046 -2.55553,-4.31873 -0.50217,-1.99755 -1.91943,-3.60451 -2.42161,-5.56859 -1.85248,-0.89276 -1.10479,-3.04654 -2.74524,-4.15133 -0.39058,-1.2945 -1.02667,-2.51089 -1.41725,-3.83887 -1.4061,-1.68508 -1.95291,-3.72727 -3.55988,-5.36772 -0.20087,-1.52885 -2.32118,-2.47741 -1.60697,-4.11785 1.45073,0.11159 1.32798,1.88595 2.62248,2.35465"
       id="path14690" />
    <path
       inkscape:connector-curvature="0"
       style="fill:#000000;fill-rule:nonzero;stroke:none"
       d="m 154.65054,220.22673 c 0.5803,1.09363 -0.71421,1.64044 -0.87044,2.51088 -0.18971,1.48422 -0.58029,2.85683 -1.60697,3.95047 -0.58029,1.80784 -0.50217,3.8835 -1.56233,5.45699 -0.23435,1.8748 -0.0446,3.638 0.15624,5.56859 -0.0781,1.95291 -0.4687,3.79423 -1.7632,5.24497 -0.15624,1.80784 -2.19843,2.82335 -2.55553,4.55307 -1.36146,1.049 -1.04899,2.77872 -2.42161,3.83887 -0.66957,1.48421 -1.88596,3.09118 -3.41481,3.68264 -0.4687,1.21638 -1.99755,1.21638 -2.07567,2.62248 -0.27898,0.94856 -1.52885,1.68508 -1.57349,2.82335 -1.32798,0.94856 -2.34349,2.15379 -3.21393,3.37017 -0.15623,0.59145 -0.34595,1.18291 -0.9374,1.60697 -0.31247,1.52885 -0.31247,3.44828 -1.88596,4.24061 -0.39058,1.4061 -1.99755,1.56233 -2.42161,2.90147 -1.37262,0.78116 -1.26102,2.34349 -2.55552,3.13582 -0.15624,0.50218 -0.42406,1.04899 -0.85928,1.4061 -0.31247,-0.1116 -0.90392,0.23435 -0.9374,-0.31247 -0.70305,-2.2319 1.95291,-3.33669 2.07567,-5.33424 1.01551,-1.2945 0.98203,-3.01307 2.27653,-4.15134 1.29451,-2.90147 0.70305,-6.55062 2.62249,-9.21774 1.40609,-1.7632 0.54681,-4.49728 2.54436,-5.91454 0.20087,-1.24986 1.21639,-2.35465 0.15623,-3.48176 -0.23434,-1.37262 0.32363,-2.71176 1.33914,-3.57104 0.18972,-1.80784 2.15379,-2.86799 2.35466,-4.63119 1.24986,-0.97088 1.24986,-2.85684 2.54437,-3.76076 0.62493,-1.01551 0.93739,-2.27653 1.88595,-3.09118 0,-1.33914 1.71856,-1.96407 1.95291,-3.21393 0.82581,-0.47986 1.45074,-0.87044 2.07567,-1.60697 1.10479,-0.0446 1.10479,-1.52885 2.15378,-1.57349 0.47986,-1.17175 1.41726,-1.91943 2.08683,-3.01307 0,-1.41725 1.84132,-1.52885 2.07567,-2.82335 1.2945,0.0335 1.06015,-2.27654 2.35465,-1.21638"
       id="path14692" />
    <path
       inkscape:connector-curvature="0"
       style="fill:#000000;fill-rule:nonzero;stroke:none"
       d="m 251.42573,237.62439 c 0.74768,1.1829 1.99755,1.85247 2.66712,2.97958 1.17174,0.47986 1.21638,1.88596 2.43277,2.35466 0.50217,1.26102 2.07566,1.52885 2.54436,2.54436 0.1116,0.63609 0.4687,1.13827 0.74769,1.68509 0.39058,2.35465 0.11159,5.02177 2.07567,6.70686 0.54681,1.10479 1.60697,1.99755 1.95291,3.18045 1.60697,1.84132 2.97959,3.99511 4.50844,5.83642 0.15623,0.74769 1.2945,1.45074 0.4687,2.15379 -0.78117,-0.62494 -1.48422,-1.4061 -2.2319,-2.15379 -1.21639,-2.2319 -3.91699,-3.76075 -5.36772,-5.99265 -0.82581,-0.20087 -0.62493,-1.06015 -1.32798,-1.41725 -2.58901,-1.91944 -4.03974,-4.9325 -6.58411,-6.97469 -0.24551,-0.4687 -0.63609,-0.74769 -1.02667,-1.01552 -1.2945,-1.37262 -2.35466,-2.82335 -3.21394,-4.3522 0.12276,-2.19842 -0.26783,-4.24061 -2.03103,-5.53511 -0.12275,-1.32798 -1.69624,-1.28335 -1.88595,-2.54437 -0.85928,-0.9374 -1.68509,-1.99755 -1.33914,-3.29205 0.43522,-0.51334 0.79232,0.27899 1.21638,0.27899 2.16495,1.84131 4.19597,3.63799 6.3944,5.55743"
       id="path14694" />
    <path
       inkscape:connector-curvature="0"
       style="fill:#000000;fill-rule:nonzero;stroke:none"
       d="m 125.08903,235.43712 c 0.23435,1.52886 -1.29451,2.58901 -1.68509,3.96163 -1.45073,0.97087 -1.21638,2.81219 -2.74524,3.87234 0,1.57349 -2.10914,2.04219 -2.15378,3.64916 -1.32798,0.9374 -1.17175,2.7006 -2.62248,3.57104 -0.54682,1.48421 -1.84132,2.93495 -3.21394,3.76075 -0.3571,0.4687 -0.66957,1.01552 -1.41725,0.85928 -0.70305,1.09363 -2.03103,1.32798 -2.51089,2.43277 -1.52885,0.15624 -1.01552,2.10915 -2.46625,2.27654 -0.18971,1.37262 -1.7632,1.7632 -2.15378,3.01307 -1.49538,0.74768 -1.57349,2.46625 -2.90147,3.37017 -0.31247,1.41725 -2.075671,1.45073 -2.466254,2.82335 -1.495373,0.51334 -0.792324,2.31002 -2.2319,2.62248 -0.557975,0.79233 -0.636091,1.80784 -1.729722,1.99755 -0.312466,1.37262 -1.885956,1.85248 -2.432771,3.02423 -0.156233,0.11159 -0.390583,0.0781 -0.546816,0.0781 -0.200871,-0.54681 0.23435,-0.66957 0.546816,-0.9374 0.43522,-2.0087 2.310016,-3.49292 3.57104,-5.09989 0.591453,-1.17174 1.952912,-2.15378 2.153783,-3.57104 1.606968,-0.89276 1.060153,-2.65596 2.667124,-3.55988 -0.12276,-1.72972 2.04219,-2.32117 2.2319,-3.96162 1.45073,-0.62493 1.17174,-2.31002 2.46625,-2.90147 0.15623,-1.84132 2.35465,-2.62248 2.63364,-4.43032 1.06015,-0.78117 1.2945,-2.15378 2.42161,-2.90147 0.0446,-1.56233 2.04219,-1.79668 2.16494,-3.29205 1.52885,-0.9374 2.26538,-2.58901 3.48177,-3.68264 1.10479,-0.98203 2.35465,-1.96407 3.21393,-3.21393 1.26103,-0.31247 1.21639,-1.91944 2.55553,-2.15379 0.34594,-1.26102 1.71856,-0.90392 2.34349,-1.96407 0.35711,-0.0781 0.55798,0.23435 0.82581,0.3571"
       id="path14696" />
    <path
       inkscape:connector-curvature="0"
       style="fill:#000000;fill-rule:nonzero;stroke:none"
       d="m 171.98125,80.889208 8.31382,-0.636091 0.0112,0.0558 -6.40555,4.965978 3.29205,6.985847 -0.0558,0.06696 -7.83396,-3.727273 -7.1644,4.876702 1.80784,-7.432228 -6.8073,-3.961622 0,-0.0558 8.4031,-0.647251 2.64481,-7.443386 3.79423,6.952368"
       id="path14698" />
    <path
       inkscape:connector-curvature="0"
       style="fill:#000000;fill-rule:nonzero;stroke:none"
       d="m 200.75044,81.681533 8.26919,1.060153 0,0.04464 -7.276,3.582199 1.79668,7.499184 -0.067,0.04464 -6.90773,-5.222646 -8.00136,3.314372 3.2809,-6.907731 -5.8699,-5.256124 0.0112,-0.0558 8.35846,1.071312 4.09554,-6.751497 2.31002,7.5773"
       id="path14700" />
    <path
       inkscape:connector-curvature="0"
       style="fill:#000000;fill-rule:nonzero;stroke:none"
       d="m 227.92382,87.986651 7.91208,2.66712 -0.0223,0.04464 -7.83397,2.075667 0.29014,7.722374 -0.0669,0.0335 -5.74715,-6.49483 -8.50353,1.685084 4.56423,-6.126565 -4.70931,-6.316277 0.0112,-0.04464 7.9902,2.689439 5.33424,-5.814099 0.78117,7.878607"
       id="path14702" />
    <path
       inkscape:connector-curvature="0"
       style="fill:#000000;fill-rule:nonzero;stroke:none"
       d="m 252.63095,99.134991 7.25368,4.117859 -0.0223,0.0446 -8.07948,0.54682 -1.19407,7.6331 -0.0781,0.0112 -4.40801,-7.45455 -8.65977,0.0223 5.65787,-5.144529 -3.43713,-7.086283 0.0335,-0.04464 7.33179,4.162494 6.3386,-4.69815 -0.73653,7.889767"
       id="path14704" />
    <path
       inkscape:connector-curvature="0"
       style="fill:#000000;fill-rule:nonzero;stroke:none"
       d="m 274.8272,114.79177 6.32743,5.43468 -0.0335,0.0335 -8.03484,-1.00435 -2.62249,7.26483 -0.0781,0 -2.90147,-8.16875 -8.5147,-1.62929 6.53947,-3.97278 -2.00871,-7.61078 0.0335,-0.0446 6.3944,5.50164 7.13092,-3.40365 -2.2319,7.59962"
       id="path14706" />
    <path
       inkscape:connector-curvature="0"
       style="fill:#000000;fill-rule:nonzero;stroke:none"
       d="m 293.08414,133.6848 5.22265,6.51715 -0.0446,0.0335 -7.71122,-2.47741 -3.91698,6.65106 -0.0893,-0.0223 -1.33914,-8.55933 -8.05716,-3.1693 7.15324,-2.7006 -0.56913,-7.85629 0.0446,-0.0223 5.27844,6.57295 7.6331,-2.01987 -3.60452,7.0528"
       id="path14708" />
    <path
       inkscape:connector-curvature="0"
       style="fill:#000000;fill-rule:nonzero;stroke:none"
       d="m 307.62497,155.89221 3.90582,7.36527 -0.0446,0.0335 -7.1086,-3.88351 -5.09989,5.8141 -0.067,-0.0335 0.27898,-8.65977 -7.33179,-4.62003 7.53266,-1.31682 0.90392,-7.82281 0.0558,-0.0223 3.95046,7.44338 7.87861,-0.55797 -4.85438,6.26048"
       id="path14710" />
    <path
       inkscape:connector-curvature="0"
       style="fill:#000000;fill-rule:nonzero;stroke:none"
       d="m 317.85823,180.62166 2.45509,7.97904 -0.0446,0.0112 -6.26048,-5.14453 -6.09308,4.74279 -0.067,-0.0446 1.89711,-8.44774 -6.32743,-5.92569 7.64425,0.13391 2.36582,-7.51034 0.0558,-0.0223 2.4774,8.06832 7.84513,0.92623 -5.94801,5.23381"
       id="path14712" />
    <path
       inkscape:connector-curvature="0"
       style="fill:#000000;fill-rule:nonzero;stroke:none"
       d="m 323.23711,206.76837 0.91508,8.29151 -0.0558,0.0112 -5.17801,-6.227 -6.87425,3.51524 -0.067,-0.0558 3.45945,-7.94556 -5.09989,-7.00817 7.48802,1.57349 3.72727,-6.94121 0.0558,0 0.92624,8.38079 7.5215,2.37697 -6.81845,4.02858"
       id="path14714" />
    <path
       inkscape:connector-curvature="0"
       style="fill:#000000;fill-rule:nonzero;stroke:none"
       d="m 323.61653,233.4061 -0.65841,8.31382 -0.0558,0 -3.92814,-7.08628 -7.40991,2.15378 -0.0446,-0.0558 4.88786,-7.1644 -3.70495,-7.83397 7.06396,2.94611 4.96598,-6.11541 0.0446,0 -0.65841,8.4031 6.94121,3.76076 -7.44339,2.67828"
       id="path14716" />
    <path
       inkscape:connector-curvature="0"
       style="fill:#000000;fill-rule:nonzero;stroke:none"
       d="m 319.08577,259.12874 -2.16494,8.05716 -0.0558,-0.0112 -2.55552,-7.68889 -7.67774,0.75884 -0.0446,-0.067 6.12657,-6.13773 -2.20958,-8.38078 6.40555,4.18481 6.00381,-5.09989 0.0558,0.0223 -2.19842,8.13527 6.13772,4.96598 -7.82281,1.26102"
       id="path14718" />
    <path
       inkscape:connector-curvature="0"
       style="fill:#000000;fill-rule:nonzero;stroke:none"
       d="m 309.84571,283.89167 -3.62684,7.51035 -0.0446,-0.0223 -1.08247,-8.03484 -7.68889,-0.68073 -0.0223,-0.0781 7.15324,-4.88786 -0.61378,-8.64861 5.5128,5.31192 6.85193,-3.89467 0.0446,0.0223 -3.67148,7.58846 5.11105,6.02613 -7.92324,-0.21203"
       id="path14720" />
    <path
       inkscape:connector-curvature="0"
       style="fill:#000000;fill-rule:nonzero;stroke:none"
       d="m 145.39932,85.464604 8.05716,-2.198422 0.0112,0.0558 -5.3454,6.081927 4.54192,6.24932 -0.0446,0.06696 -8.39194,-2.187262 -6.12657,6.137725 0.37943,-7.644258 -7.42107,-2.600163 -0.0223,-0.0558 8.13528,-2.20958 1.19406,-7.811651 5.03294,6.115406"
       id="path14722" />
    <path
       inkscape:connector-curvature="0"
       style="fill:#000000;fill-rule:nonzero;stroke:none"
       d="m 119.5316,95.307283 7.4657,-3.716114 0.0223,0.04464 -4.0509,7.008166 5.66903,5.244967 -0.0335,0.0781 -8.64861,-0.51333 -4.80975,7.20903 -1.11595,-7.56614 -7.80049,-1.10479 -0.0223,-0.0558 7.55498,-3.749597 -0.3571,-7.889766 6.12657,5.010615"
       id="path14724" />
    <path
       inkscape:connector-curvature="0"
       style="fill:#000000;fill-rule:nonzero;stroke:none"
       d="m 96.509547,109.64724 6.617583,-5.06641 0.0335,0.0446 -2.6448,7.65541 6.56178,4.06206 -0.0223,0.0781 -8.581651,1.14943 -3.34785,8.00136 -2.544366,-7.2202 -7.856288,0.40174 -0.03348,-0.0446 6.684541,-5.13337 -1.852477,-7.67773 6.985847,3.74959"
       id="path14726" />
    <path
       inkscape:connector-curvature="0"
       style="fill:#000000;fill-rule:nonzero;stroke:none"
       d="m 77.058538,127.69215 5.557431,-6.21584 0.03348,0.0335 -1.171748,8.01252 7.209037,2.76756 0,0.0781 -8.224551,2.74524 -1.78552,8.47006 -3.850028,-6.60642 -7.644257,1.85247 -0.04464,-0.0335 5.613228,-6.29395 -3.247414,-7.18672 7.554981,2.37697"
       id="path14728" />
    <path
       inkscape:connector-curvature="0"
       style="fill:#000000;fill-rule:nonzero;stroke:none"
       d="m 60.966539,149.4755 4.25177,-7.17556 0.04464,0.0335 0.401742,8.09063 7.610779,1.31682 0.01116,0.0781 -7.543822,4.27409 -0.122754,8.67093 -5.044094,-5.74714 -7.15324,3.30321 -0.04464,-0.0335 4.296407,-7.25367 -4.575395,-6.42788 7.867448,0.87045"
       id="path14730" />
    <path
       inkscape:connector-curvature="0"
       style="fill:#000000;fill-rule:nonzero;stroke:none"
       d="m 49.516892,173.61349 2.823354,-7.85628 0.04464,0.0223 1.919434,7.8786 7.722374,-0.14507 0.02232,0.0781 -6.595265,5.61322 1.506533,8.53702 -6.03729,-4.69815 -6.394393,4.58656 -0.0558,-0.0112 2.856832,-7.93441 -5.713664,-5.45699 7.900926,-0.61378"
       id="path14732" />
    <path
       inkscape:connector-curvature="0"
       style="fill:#000000;fill-rule:nonzero;stroke:none"
       d="m 42.754235,199.70441 1.283343,-8.24688 0.0558,0.0112 3.370169,7.36527 7.554982,-1.5958 0.04464,0.067 -5.423517,6.76266 3.102341,8.1018 -6.818455,-3.47061 -5.423517,5.71367 -0.04464,-0.0112 1.294503,-8.32499 -6.639903,-4.27409 7.644258,-2.09799"
       id="path14734" />
    <path
       inkscape:connector-curvature="0"
       style="fill:#000000;fill-rule:nonzero;stroke:none"
       d="m 41.046832,225.7172 -0.245509,-8.33615 0.0558,0 4.664671,6.61759 7.130921,-2.95727 0.0558,0.067 -4.084378,7.64425 4.541917,7.38759 -7.342951,-2.15378 -4.274088,6.61758 -0.0558,0 -0.245509,-8.43658 -7.320632,-2.96843 7.119761,-3.48176"
       id="path14736" />
    <path
       inkscape:connector-curvature="0"
       style="fill:#000000;fill-rule:nonzero;stroke:none"
       d="m 44.238449,252.22101 -1.818999,-8.13527 0.0558,-0.0223 5.836418,5.63555 6.450191,-4.25177 0.06696,0.0558 -2.577844,8.26919 5.836418,6.40556 -7.610779,-0.73653 -2.957267,7.29831 -0.04464,0.0112 -1.841317,-8.22455 -7.733534,-1.55117 6.338596,-4.75395"
       id="path14738" />
    <path
       inkscape:connector-curvature="0"
       style="fill:#000000;fill-rule:nonzero;stroke:none"
       d="m 52.451841,277.83206 -3.336691,-7.64425 0.0558,-0.0223 6.796135,4.408 5.523953,-5.39004 0.06696,0.0335 -0.948558,8.61513 6.952369,5.17801 -7.621939,0.72537 -1.506532,7.72237 -0.04464,0.0223 -3.370169,-7.73353 -7.889766,-0.0446 5.323081,-5.8699"
       id="path14740" />
    <path
       inkscape:connector-curvature="0"
       style="fill:#000000;fill-rule:nonzero;stroke:none"
       d="m 208.77412,165.91344 c -0.25667,1.30566 0.59145,5.69134 3.92814,0.98203 3.32553,-4.69814 4.89902,-9.40745 4.9883,-11.07022 0.10043,-1.66276 -0.8816,-4.60887 -3.71612,-0.78116 -2.84567,3.81654 -4.89902,9.40745 -5.20032,10.86935"
       id="path14742" />
    <path
       inkscape:connector-curvature="0"
       style="fill:#ffffff;fill-rule:nonzero;stroke:none"
       d="m 263.79045,154.74278 4.47496,0 0.39058,-1.27218 -4.25177,0 c 0.77001,-1.60697 1.42842,-2.97959 1.79668,-3.72728 1.37262,-2.73407 0.39059,-2.54436 -0.8816,-2.6448 -1.27218,-0.0893 -1.37261,0.30131 -1.7632,1.18291 -0.17855,0.39058 -1.27218,2.62248 -2.5332,5.18917 l -2.65596,0 -0.59146,1.27218 2.62248,0 c -1.39493,2.84567 -2.84567,5.78062 -3.40364,6.96353 -0.34595,0.70305 -0.8816,1.71856 -1.36146,2.82335 0,0.0112 -0.0112,0.0112 -0.0112,0.0112 -0.78117,0.79233 -1.7632,1.67393 -3.33669,2.16494 -1.56233,0.49102 -1.7632,-0.98203 -1.47306,-2.16494 0.30131,-1.17175 0.49102,-0.97088 3.23626,-6.7515 2.74524,-5.79178 -2.44393,-4.70931 -4.30757,-3.23625 -1.86364,1.46189 -2.74524,1.46189 -2.54436,0.18971 0.18971,-1.27218 -2.45509,-1.66277 -3.18046,-0.36826 -0.72537,1.2945 -3.19162,5.56859 -4.17366,7.62193 -0.98203,2.06451 -1.47305,2.64481 -3.5264,4.2183 -2.0645,1.56233 -2.94611,0.49101 -2.6448,-1.18291 0.29015,-1.66277 2.74524,-6.46135 3.71611,-8.71557 0.98204,-2.25422 0.88161,-2.55553 -0.78116,-2.55553 -1.66277,0 -1.27218,-0.0893 -1.95291,1.47306 -0.69189,1.57349 -3.82771,7.15324 -5.59091,10.09935 -1.7632,2.93494 -4.408,1.46189 -3.78307,-0.33479 0.62493,-1.80784 1.72972,-4.37452 3.49292,-7.90093 1.7632,-3.5264 0.29015,-3.13582 -0.49102,-3.13582 -0.78116,0 -0.78116,-0.20087 -1.39493,0.69189 -0.60262,0.87044 -1.3503,1.4619 -3.89467,2.83452 -1.39494,0.74768 -2.05335,-0.0446 -2.36581,-0.92624 0.0112,-0.39058 -0.0223,-0.71421 -0.0893,-0.9374 -0.39058,-1.27218 -2.12031,-5.50163 -7.44339,-2.34349 -4.80974,2.83451 -5.49047,6.85193 -7.94556,10.86935 -1.38378,2.27654 -2.76756,3.1693 -3.85003,3.45944 -0.14507,-0.0335 -0.29015,-0.0558 -0.42406,-0.0893 -0.84812,-0.20087 -0.5245,-1.83016 -0.32362,-2.35466 0.18971,-0.52449 2.74523,-5.61323 3.71611,-7.51034 0.98203,-1.89712 1.11595,-2.09799 0,-3.79423 -1.10479,-1.69624 -4.30757,0.45754 -5.2896,1.30566 -0.98204,0.84812 -1.49538,0.33479 -1.49538,0.33479 -1.89711,-4.31873 -5.09989,-1.18291 -5.79178,-0.84813 -0.69189,0.32363 -1.95291,0.49102 -2.1203,-0.067 -0.91508,-3.13582 -3.13582,-0.91508 -3.45945,-0.20087 -0.32362,0.72536 -3.85003,7.51034 -5.94801,10.38949 -1.09363,1.50653 -2.14263,2.04219 -2.90147,2.20958 -0.42406,-0.0893 -0.77001,-0.25667 -0.79233,-0.77 0.39059,-3.82771 2.74524,-9.095 4.62004,-11.37153 0.15623,-0.54682 0.0558,-0.92624 -0.26783,-1.24987 -1.19407,-0.34594 -2.49973,-0.50218 -3.87235,-0.4687 -0.91508,-0.34594 -2.57784,-0.42406 -5.61323,1.62929 -0.56913,0.3571 -1.11595,0.74769 -1.52885,1.13827 -0.85928,0.8258 -1.61812,1.60697 -2.27654,2.36581 -0.79232,-0.39058 -1.07131,-1.84132 -0.49101,-3.60452 0.90392,-2.81219 -1.77436,-1.04899 -2.48857,-0.45754 -0.71421,0.5803 -2.15379,1.819 -2.8122,1.36146 -0.64725,-0.44638 0.26783,-2.08682 -0.0669,-2.27653 -0.32363,-0.20088 -2.54437,0 -3.00191,0.91507 -0.45754,0.91508 -4.50844,8.1576 -6.46135,10.83588 -0.85928,1.16059 -1.97523,1.7074 -2.96843,1.96407 -0.42406,-0.0893 -0.79232,-0.24551 -0.8258,-0.78116 0.39058,-3.82771 2.74524,-9.095 4.63119,-11.37153 0.15624,-0.54682 0.0446,-0.92624 -0.27898,-1.24987 -1.18291,-0.34594 -2.48857,-0.50218 -3.86119,-0.4687 -0.91508,-0.34594 -2.57785,-0.42406 -5.62439,1.62929 -0.56913,0.3571 -1.11595,0.74769 -1.52885,1.13827 -7.39875,7.1086 -7.13092,11.41617 -5.64671,12.8669 0.98204,0.8258 2.7564,0.75885 3.81655,0.32363 1.03784,-0.35711 2.74524,-1.45074 3.59336,-2.41045 0.39058,0.93739 0.91508,1.89711 1.99755,2.16494 0.0112,0 0.0335,0 0.0446,0.0112 0.17855,0.0781 0.4129,0.13391 0.70305,0.16739 2.22074,0.26783 6.27164,-3.25857 6.27164,-3.25857 -2.22074,3.06886 -1.049,3.20277 -1.049,3.20277 0,0 1.64045,0.45754 2.94611,0.32363 1.30566,-0.13392 1.62929,-1.64045 1.62929,-1.64045 0,0 2.87915,-6.46135 3.91698,-8.09064 1.049,-1.64044 3.92815,-3.20277 3.72728,-0.85928 -0.1116,1.31682 0.92623,1.84132 1.69624,2.2877 -2.55553,3.95046 -2.31002,6.74034 -1.2387,7.77817 0.98203,0.8258 2.75639,0.75885 3.81654,0.32363 1.02668,-0.35711 2.74524,-1.45074 3.59336,-2.41045 0.39059,0.93739 0.91508,1.89711 1.99755,2.16494 1.36146,0.49102 2.74524,-0.15624 3.86119,-0.95972 1.68509,-0.8258 2.94611,-1.21638 2.27654,-0.0335 -0.84812,1.50653 0.65841,1.17175 1.69624,1.23871 1.049,0.0669 1.43958,-0.18971 1.7632,-1.03784 0.33479,-0.84812 2.09799,-4.77626 3.26974,-6.67338 1.1829,-1.88595 1.31682,-4.88786 4.57539,-5.74714 2.47741,-0.64725 0.65841,3.5264 -1.11595,6.79614 -1.7632,3.26973 -2.73407,5.81409 -2.27654,6.20468 0.45754,0.39058 2.868,0.52449 3.24742,0.0112 0.37942,-0.50218 2.43277,-5.03294 3.34785,-6.67338 0.91508,-1.62929 1.64045,-4.68699 4.50844,-6.07077 2.01987,-0.98204 2.22074,0.91508 1.56233,2.2877 -0.64725,1.37261 -3.85003,7.90092 -3.66032,9.98775 0.20087,2.09798 3.33669,1.37262 4.77627,0.52449 0.18971,-0.11159 0.33478,-0.21203 0.44638,-0.31246 1.60697,-0.98204 3.50408,-2.65596 3.50408,-2.65596 -0.29015,1.07131 0,3.5264 2.6448,4.11785 2.6448,0.5803 6.27164,-0.59145 9.21775,-4.37452 1.74088,-2.24306 2.71176,-4.83206 3.14698,-6.82961 0.66957,0.31246 1.56233,0.33478 2.2319,0.22319 1.1829,-0.18972 2.55552,-2.05335 2.55552,-2.05335 0,0 -1.86363,4.01742 -3.62683,7.64425 -1.76321,3.62684 0.0781,5.05526 1.86363,5.18917 2.6448,0.20087 5.78062,-2.74523 5.78062,-2.74523 0.29015,0.98203 1.07132,2.9461 3.23626,2.6448 2.15378,-0.29015 5.2896,-3.03539 5.2896,-3.03539 -0.39058,0.78117 -1.18291,2.6448 0.98204,2.45509 3.12466,-0.29014 2.44393,-1.67392 3.71611,-4.01742 1.27218,-2.35465 1.91943,-4.8767 3.62684,-7.06396 2.45509,-3.13582 4.94366,-1.27218 4.60887,-0.0893 -0.33478,1.17175 -3.03538,6.36092 -3.91698,8.42543 -0.8816,2.05334 0.78116,3.32553 3.03538,3.03538 1.45074,-0.18971 3.72727,-1.60697 5.14453,-2.57784 -0.0446,1.88595 0.8816,2.76755 1.96407,3.06886 4.89902,1.33914 8.96108,-4.74279 8.96108,-4.74279 0,0 -0.20087,-0.97088 -0.43522,-0.29015 -0.23435,0.69189 -3.41481,3.64916 -4.85438,3.82771 -1.66277,0.18971 -3.33669,-1.86363 -1.57349,-5.20033 0.4687,-0.87044 2.86799,-4.44148 4.84322,-8.59281 z m -117.26402,6.61758 c -0.95972,1.71857 -1.37262,3.42597 -3.60452,4.73163 -1.17175,0.55798 -2.46625,0.74769 -3.39249,0.51334 -1.91943,-0.53566 -0.0446,-3.47061 1.2945,-5.83642 1.02668,-1.75204 2.00871,-3.18046 3.9951,-5.17801 0.27899,-0.26783 0.55798,-0.50218 0.82581,-0.70305 1.32798,-0.94855 3.15813,-1.14943 3.67147,-0.75884 0.0893,0.067 0.15623,0.13391 0.22319,0.20087 -0.0893,1.7632 -1.94175,5.08873 -3.01306,7.03048 z m 28.05498,0 c -0.95972,1.71857 -1.37262,3.42597 -3.61568,4.73163 -1.16059,0.55798 -2.45509,0.74769 -3.38133,0.51334 -1.91943,-0.53566 -0.0446,-3.47061 1.28334,-5.83642 1.02668,-1.75204 2.00872,-3.18046 3.99511,-5.17801 0.29014,-0.26783 0.56913,-0.50218 0.83696,-0.70305 1.31682,-0.94855 3.15814,-1.14943 3.67147,-0.75884 0.0781,0.067 0.15624,0.13391 0.22319,0.20087 -0.0893,1.7632 -1.95291,5.08873 -3.01306,7.03048"
       id="path14744" />
    <path
       inkscape:connector-curvature="0"
       style="fill:#000000;fill-rule:nonzero;stroke:none"
       d="m 208.77412,165.91344 c -0.25667,1.30566 0.59145,5.69134 3.92814,0.98203 3.32553,-4.69814 4.89902,-9.40745 4.9883,-11.07022 0.10043,-1.66276 -0.8816,-4.60887 -3.71612,-0.78116 -2.84567,3.81654 -4.89902,9.40745 -5.20032,10.86935"
       id="path14746" />
    <path
       inkscape:connector-curvature="0"
       style="fill:#000000;fill-rule:nonzero;stroke:none"
       d="m 285.39524,314.61378 -2.24306,0 0,-13.63691 5.17801,0 c 3.29205,0 4.96598,1.14943 4.96598,3.91698 0,2.46625 -1.50653,3.49293 -3.54872,3.72728 l 3.81655,5.99265 -2.53321,0 -3.5264,-5.83642 -2.10915,0 0,5.83642 z m 2.49973,-7.7447 c 1.68509,0 3.1693,-0.16739 3.1693,-2.14262 0,-1.64045 -1.61813,-1.84132 -2.96843,-1.84132 l -2.7006,0 0,3.98394 2.49973,0"
       id="path14750" />
    <path
       inkscape:connector-curvature="0"
       style="fill:none;stroke:#000000;stroke-width:1.56233001;stroke-linecap:butt;stroke-linejoin:miter;stroke-miterlimit:4"
       d="m 288.12932,317.78307 c 5.66903,0 10.25558,-4.59771 10.25558,-10.25558 0,-5.66902 -4.58655,-10.25558 -10.25558,-10.25558 -5.65787,0 -10.25558,4.58656 -10.25558,10.25558 0,5.65787 4.59771,10.25558 10.25558,10.25558 z"
       stroke-miterlimit="4"
       id="path14752" />
    <g
       id="g3428"
       transform="matrix(0.5430414,0,0,0.5430414,30.826276,156.60802)"
       style="fill:#000000">
      <g
         id="g3168"
         transform="translate(100.68861,-442.49404)"
         style="fill:#000000">
        <rect
           style="fill:#000000;fill-opacity:1"
           id="rect3152"
           width="19.331221"
           height="4.3036618"
           x="-84.285713"
           y="797.35321" />
        <path
           id="path3154"
           style="fill:#000000;stroke:none"
           d="m -73.035714,785.55564 c 0,0 -6.38753,15.93893 -7.902759,19.31917 -1.515229,3.38023 -2.302689,3.38023 -5.682108,3.38023 -3.379419,0 -3.379419,0 -3.379419,0 l 12.975868,-29.28572 3.988418,0 z"
           inkscape:connector-curvature="0" />
        <use
           x="0"
           y="0"
           xlink:href="#path3154"
           id="use3165"
           transform="matrix(-1,0,0,1,-146.07143,2.6171874e-6)"
           width="744.09448"
           height="1052.3622"
           style="fill:#000000;stroke:none" />
      </g>
      <g
         transform="translate(532.02375,-442.49404)"
         id="g3175"
         style="fill:#000000">
        <rect
           y="797.35321"
           x="-84.285713"
           height="4.3036618"
           width="19.331221"
           id="rect3177"
           style="fill:#000000;fill-opacity:1" />
        <path
           inkscape:connector-curvature="0"
           d="m -73.035714,785.55564 c 0,0 -6.38753,15.93893 -7.902759,19.31917 -1.515229,3.38023 -2.302689,3.38023 -5.682108,3.38023 -3.379419,0 -3.379419,0 -3.379419,0 l 12.975868,-29.28572 3.988418,0 z"
           style="fill:#000000;stroke:none"
           id="path3179" />
        <use
           style="fill:#000000;stroke:none"
           height="1052.3622"
           width="744.09448"
           transform="matrix(-1,0,0,1,-146.07143,2.6171874e-6)"
           id="use3181"
           xlink:href="#path3154"
           y="0"
           x="0" />
      </g>
      <path
         inkscape:connector-curvature="0"
         d="m 201.75937,359.81927 c 1.63271,-0.79881 2.67867,-2.06388 3.38839,-4.0982 0.71156,-2.03963 0.63972,-7.3074 -0.12618,-9.25184 -0.7428,-1.88576 -1.78464,-3.10444 -3.32766,-3.89247 -1.09763,-0.56057 -1.60549,-0.64556 -3.85723,-0.64556 -2.32075,0 -2.7499,0.077 -4.08523,0.73268 -2.45814,1.20707 -3.68724,3.52682 -3.97729,7.50656 -0.40219,5.51844 1.46016,9.13575 5.25473,10.20642 1.94638,0.54919 4.98238,0.29767 6.73047,-0.55759 z m -8.46071,5.95345 c -3.69516,-0.79649 -7.27849,-3.31912 -8.87101,-6.2451 -2.36844,-4.3516 -2.377,-11.83632 -0.0186,-16.25434 0.94575,-1.77167 3.51686,-4.34892 5.17867,-5.19103 2.42211,-1.22738 4.8099,-1.72635 8.2613,-1.72635 5.15072,0 8.146,1.04196 10.95453,3.81073 1.81911,1.79335 3.13379,4.26543 3.69659,6.95089 0.42651,2.03511 0.42512,6.62335 -0.003,8.42778 -1.25736,5.30516 -5.06747,8.98999 -10.56303,10.2157 -2.26888,0.50604 -6.31712,0.51153 -8.63591,0.0117 z"
         style="fill:#000000;fill-opacity:1"
         id="path3225" />
      <path
         inkscape:connector-curvature="0"
         id="path3223"
         d="m 101.03863,365.25527 c -0.45443,-0.27708 -0.95037,-0.73574 -1.102092,-1.01925 -0.18491,-0.3455 -0.27587,-5.00989 -0.27587,-14.14661 l 0,-13.63116 3.371112,0 3.37112,0 0,14.65137 0,14.65138 -2.26902,-0.001 c -1.78913,-7.8e-4 -2.44377,-0.10752 -3.09525,-0.50476 z"
         style="fill:#000000;fill-opacity:1" />
      <path
         inkscape:connector-curvature="0"
         d="m 134.36999,359.28662 c 0.98538,-0.58208 1.43277,-1.67349 1.64471,-4.01229 l 0.18166,-2.00473 -5.80555,0.0146 c -6.29656,0.0159 -7.22791,0.16922 -8.0899,1.33202 -1.02115,1.37748 -0.55336,4.20819 0.8108,4.90633 0.85084,0.43545 7.36801,0.71784 9.25277,0.40093 0.71298,-0.11988 1.61546,-0.40649 2.00551,-0.6369 z m -12.05338,6.16497 c -4.2961,-0.48927 -6.61936,-2.54609 -7.45644,-6.60131 -0.80377,-3.89389 0.86725,-8.31971 3.68372,-9.75656 2.00288,-1.02179 4.08993,-1.26048 11.06308,-1.26526 l 6.57762,-0.005 -0.17854,-1.49107 c -0.25312,-2.11394 -0.84889,-3.20665 -2.08541,-3.82491 -0.94541,-0.47271 -1.70852,-0.53012 -8.61704,-0.6483 l -7.57977,-0.12965 -0.71336,-0.71402 c -0.62749,-0.62808 -0.72529,-0.95034 -0.8125,-2.67743 l -0.0991,-1.9634 9.81851,0.1006 c 10.76048,0.11025 11.2497,0.17272 13.59034,1.73525 1.41337,0.94352 2.40804,2.48972 2.94556,4.57885 0.5465,2.12409 0.59607,14.01958 0.0676,16.22292 -0.73454,3.06239 -2.69521,5.1791 -5.61476,6.06156 -1.68454,0.50917 -11.25754,0.75669 -14.58945,0.37723 z"
         style="fill:#000000;fill-opacity:1"
         id="path3219" />
      <path
         inkscape:connector-curvature="0"
         id="path3217"
         d="m 163.61315,365.4266 c -5.9766,-0.8709 -9.86175,-4.64091 -10.92695,-10.60311 -0.84882,-4.75109 -0.0854,-9.4007 2.10759,-12.83616 1.63764,-2.56547 3.45302,-3.92381 6.60292,-4.94057 1.18643,-0.38297 2.65802,-0.47906 8.75193,-0.57148 l 7.32568,-0.11111 0,1.83505 c 0,1.66055 -0.0719,1.91559 -0.75595,2.68193 l -0.75596,0.84687 -5.53329,0.13104 c -5.50902,0.13047 -5.54009,0.13445 -7.08836,0.90761 -2.74994,1.37324 -3.75926,3.59806 -3.75926,8.2864 0,4.35431 1.21069,6.90619 3.86201,8.14027 1.37525,0.64013 1.74179,0.68462 6.76996,0.82162 3.49115,0.0951 5.51535,0.25527 5.89676,0.46651 0.91842,0.50868 1.36409,1.66359 1.36409,3.53487 l 0,1.69844 -6.15876,-0.0316 c -3.38732,-0.0174 -6.8534,-0.13285 -7.70241,-0.25656 z"
         style="fill:#000000;fill-opacity:1" />
      <path
         id="path3215"
         d="m 71.664828,365.20234 c -0.12711,-0.32518 -1.77047,-4.26704 -3.6519,-8.7597 -7.10699,-16.97067 -8.03861,-19.22642 -8.03861,-19.464 0,-0.13943 1.38327,-0.24404 3.227,-0.24404 2.9831,0 3.27559,0.0441 3.87004,0.58346 0.60658,0.55037 1.24615,2.07749 6.95644,16.61025 0.71754,1.82615 1.33722,3.28481 1.37706,3.24145 0.0673,-0.0732 5.49649,-12.83101 7.40574,-17.40231 1.21638,-2.91236 1.4294,-3.03285 5.36226,-3.03285 2.48593,0 3.20324,0.075 3.10031,0.32415 -0.23007,0.55689 -9.14983,20.44127 -11.60336,25.8668 l -1.23131,2.72282 -3.27128,0.0726 c -3.19606,0.0709 -3.27658,0.059 -3.50239,-0.51864 z"
         style="fill:#000000;fill-opacity:1"
         inkscape:connector-curvature="0" />
      <path
         inkscape:connector-curvature="0"
         id="path2222"
         d="m 223.45235,351.22435 0,-14.52172 5.43118,0 c 5.26246,0 5.45183,0.0181 6.09605,0.58346 0.62895,0.55195 1.68714,3.07677 7.08353,16.90124 l 1.20722,3.09264 0.61952,-1.40709 c 0.34073,-0.77389 2.19208,-5.14123 4.11411,-9.7052 2.27208,-5.39519 3.71944,-8.50224 4.13732,-8.88159 0.62139,-0.56408 0.8145,-0.58346 5.8146,-0.58346 l 5.17187,0 0,14.52172 0,14.52171 -2.40581,0 c -2.54996,0 -3.23255,-0.24181 -3.88061,-1.37471 -0.24014,-0.41979 -0.36034,-3.24312 -0.45581,-10.70545 l -0.12966,-10.13529 -4.93227,11.0429 -4.93227,11.04289 -3.26974,0.0723 -3.26975,0.0723 -1.28562,-3.05448 c -0.70708,-1.67997 -2.85079,-6.80551 -4.76379,-11.39011 l -3.47819,-8.33563 -0.12966,10.41016 c -0.0957,7.68354 -0.21508,10.5595 -0.45581,10.98032 -0.64806,1.1329 -1.33065,1.37471 -3.88061,1.37471 l -2.4058,0 0,-14.52171 z"
         style="fill:#000000;fill-opacity:1" />
      <path
         id="path3250"
         style="fill:#000000;fill-opacity:1"
         d="m 339.79509,359.81927 c 1.63271,-0.79881 2.67867,-2.06388 3.38839,-4.0982 0.71156,-2.03963 0.63972,-7.3074 -0.12618,-9.25184 -0.7428,-1.88576 -1.78464,-3.10444 -3.32766,-3.89247 -1.09763,-0.56057 -1.60549,-0.64556 -3.85723,-0.64556 -2.32076,0 -2.7499,0.077 -4.08524,0.73268 -2.45814,1.20707 -3.68724,3.52682 -3.97729,7.50656 -0.40219,5.51844 1.46017,9.13575 5.25474,10.20642 1.94638,0.54919 4.98238,0.29767 6.73047,-0.55759 z m -8.46072,5.95345 c -3.69515,-0.79649 -7.27848,-3.31912 -8.871,-6.2451 -2.36844,-4.3516 -2.37701,-11.83632 -0.0186,-16.25434 0.94574,-1.77167 3.51686,-4.34892 5.17866,-5.19103 2.42214,-1.22738 4.80993,-1.72635 8.26132,-1.72635 5.15073,0 8.14601,1.04196 10.95454,3.81073 1.81911,1.79335 3.13379,4.26543 3.69659,6.95089 0.42651,2.03511 0.42512,6.62335 -0.003,8.42778 -1.25736,5.30516 -5.06747,8.98999 -10.56303,10.2157 -2.26888,0.50604 -6.31713,0.51153 -8.63591,0.0117 z"
         inkscape:connector-curvature="0" />
      <path
         style="fill:#000000;fill-opacity:1"
         d="m 301.64887,365.4266 c -5.9766,-0.8709 -9.86176,-4.64091 -10.92695,-10.60311 -0.84882,-4.75109 -0.0854,-9.4007 2.10759,-12.83616 1.63764,-2.56547 3.45302,-3.92381 6.60292,-4.94057 1.18642,-0.38297 2.65801,-0.47906 8.75192,-0.57148 l 7.32569,-0.11111 0,1.83505 c 0,1.66055 -0.0719,1.91559 -0.75596,2.68193 l -0.75596,0.84687 -5.53328,0.13104 c -5.50903,0.13047 -5.5401,0.13445 -7.08836,0.90761 -2.74994,1.37324 -3.75927,3.59806 -3.75927,8.2864 0,4.35431 1.2107,6.90619 3.86201,8.14027 1.37526,0.64013 1.7418,0.68462 6.76996,0.82162 3.49115,0.0951 5.51535,0.25527 5.89677,0.46651 0.91841,0.50868 1.36409,1.66359 1.36409,3.53487 l 0,1.69844 -6.15876,-0.0316 c -3.38732,-0.0174 -6.85341,-0.13285 -7.70241,-0.25656 z"
         id="path3252"
         inkscape:connector-curvature="0" />
      <path
         style="fill:#000000;fill-opacity:1"
         d="m 361.48807,351.22435 0,-14.52172 5.43118,0 c 5.26246,0 5.45183,0.0181 6.09605,0.58346 0.62895,0.55195 1.68714,3.07677 7.08353,16.90124 l 1.20722,3.09264 0.61952,-1.40709 c 0.34073,-0.77389 2.19208,-5.14123 4.11411,-9.7052 2.27208,-5.39519 3.71944,-8.50224 4.13732,-8.88159 0.62139,-0.56408 0.8145,-0.58346 5.8146,-0.58346 l 5.17187,0 0,14.52172 0,14.52171 -2.40581,0 c -2.54996,0 -3.23255,-0.24181 -3.88061,-1.37471 -0.24014,-0.41979 -0.36034,-3.24312 -0.45581,-10.70545 l -0.12966,-10.13529 -4.93227,11.0429 -4.93227,11.04289 -3.26974,0.0723 -3.26975,0.0723 -1.28562,-3.05448 c -0.70708,-1.67997 -2.85079,-6.80551 -4.76379,-11.39011 l -3.47819,-8.33563 -0.12966,10.41016 c -0.0957,7.68354 -0.21508,10.5595 -0.45581,10.98032 -0.64806,1.1329 -1.33065,1.37471 -3.88061,1.37471 l -2.4058,0 0,-14.52171 z"
         id="path3254"
         inkscape:connector-curvature="0" />
      <path
         id="path3256"
         d="m 413.18861,336.47471 -0.1875,29.28125 3.3125,0 c 2.5,0 3.65625,0.0134 3.65625,-5.34375 l 0,-5 c 0,0 3.14676,-0.12703 11.375,0.0937 8.03628,0.21564 9.71875,-4.48508 9.71875,-9.34375 0,0 -0.56041,-9.28514 -8.40625,-9.6875 l -19.46875,0 z m 6.84375,6.59375 9.84375,0 c 1.64149,0 3.28125,-0.13689 3.28125,4.15625 0,3.53553 -4.67481,3.53125 -5.9375,3.53125 l -7.1875,0 0,-7.6875 z"
         style="fill:#000000;stroke:none"
         inkscape:connector-curvature="0" />
      <path
         id="path3223-8"
         d="m 481.37611,336.44346 0,0.0312 0,5.5625 0,9.0625 0,14.65625 2.28125,0 c 1.78913,-7.8e-4 2.44226,-0.10276 3.09375,-0.5 0.45442,-0.27708 0.94202,-0.74774 1.09375,-1.03125 0.18491,-0.3455 0.28125,-4.98828 0.28125,-14.125 l 0,-8.875 c 1.12068,1.93766 3.95175,7.0458 6.53125,13.59375 2.70851,6.87544 4.01935,10.9375 8.3125,10.9375 l 8.71875,0 0,-6.03125 0,-23.25 -7.6875,0 0,20.4375 c -1.33363,-2.35263 -3.26582,-6.01146 -4.8125,-10.1875 -2.52538,-6.81853 -2.138,-10.25 -7.0625,-10.25 l -4,0 0,-0.0312 -3.375,0 -3.375,0 z"
         style="fill:#000000;fill-opacity:1"
         inkscape:connector-curvature="0" />
      <path
         sodipodi:nodetypes="ccccccccccscc"
         inkscape:connector-curvature="0"
         id="path3223-3"
         d="m 536.31806,365.25655 c 0.45442,-0.27693 0.95037,-0.73534 1.10209,-1.0187 0.18491,-0.34531 0.44325,-8.0615 0.40214,-7.9923 l 11.74302,-19.77027 -7.4308,0 -7.80961,13.11168 -8.50409,-13.11168 -7.24139,0 12.37437,20.64336 0,8.64336 2.26902,-10e-4 c 1.78913,-7.8e-4 2.44376,-0.10746 3.09525,-0.50448 z"
         style="fill:#000000;fill-opacity:1" />
    </g>
    <rect
       style="fill:#000000;fill-opacity:1;stroke:none"
       id="rect3462"
       width="292.63235"
       height="4.0536141"
       x="36.630634"
       y="326.63745" />
  </g>
</svg>
